<?xml version="1.0" encoding="UTF-8" standalone="no"?>
<!-- Created with Inkscape (http://www.inkscape.org/) -->

<svg
   version="1.1"
   id="svg2"
   xml:space="preserve"
   width="25"
   height="25"
   viewBox="0 0 25 25"
   sodipodi:docname="sofc-dots-logo.svg"
   inkscape:version="1.4.2 (1:1.4.2+202505120738+ebf0e940d0)"
   inkscape:export-filename="top-logo-fulls.png"
   inkscape:export-xdpi="96"
   inkscape:export-ydpi="96"
   xmlns:inkscape="http://www.inkscape.org/namespaces/inkscape"
   xmlns:sodipodi="http://sodipodi.sourceforge.net/DTD/sodipodi-0.dtd"
   xmlns="http://www.w3.org/2000/svg"
   xmlns:svg="http://www.w3.org/2000/svg"><defs
     id="defs6" /><sodipodi:namedview
     id="namedview4"
     pagecolor="#ffffff"
     bordercolor="#666666"
     borderopacity="1.0"
     inkscape:pageshadow="2"
     inkscape:pageopacity="0.0"
     inkscape:pagecheckerboard="0"
     showgrid="false"
     inkscape:zoom="2.8284271"
     inkscape:cx="-6.363961"
     inkscape:cy="-10.429825"
     inkscape:window-width="1920"
     inkscape:window-height="1016"
     inkscape:window-x="0"
     inkscape:window-y="0"
     inkscape:window-maximized="1"
     inkscape:current-layer="group-R5-3"
     inkscape:showpageshadow="2"
     inkscape:deskcolor="#d1d1d1"><inkscape:grid
       id="grid1"
       units="px"
       originx="0"
       originy="0"
       spacingx="1"
       spacingy="0.99999998"
       empcolor="#0099e5"
       empopacity="0.30196078"
       color="#0099e5"
       opacity="0.14901961"
       empspacing="5"
       enabled="true"
       visible="false" /></sodipodi:namedview><g
     id="g8"
     inkscape:groupmode="layer"
     inkscape:label="ink_ext_XXXXXX"
     transform="matrix(1.3333333,0,0,-1.3333333,0,133.33333)"><g
       id="g10"
       transform="matrix(0.1590984,0,0,0.1590984,-30.80782,-29.658116)"
       style="fill:#000000;fill-opacity:1"><g
         id="group-R5-3"
         transform="matrix(2.4854569,0,0,-2.4854569,-784.56129,864.28669)"
         style="fill:#ffffff;fill-opacity:1" /></g><path
       id="path98"
       d="m 12.455868,94.573359 c -0.905669,0 -1.639586,-0.735276 -1.639586,-1.638662 0,-0.90413 0.735078,-1.639404 1.639197,-1.639404 0.902575,0 1.637271,0.735274 1.637271,1.639404 0,0.903386 -0.734696,1.638662 -1.636882,1.638662"
       style="fill:#7dceee;fill-opacity:1;fill-rule:nonzero;stroke:none;stroke-width:0.0387702" /><path
       id="path99-0"
       d="m 17.072622,83.850496 c -0.509443,0 -0.923123,-0.414488 -0.923123,-0.924395 C 16.149499,82.415693 16.563179,82 17.072622,82 17.583998,82 18,82.415693 18,82.926101 c 0,0.509907 -0.416002,0.924395 -0.927378,0.924395"
       style="fill:#7fc629;fill-opacity:1;fill-rule:nonzero;stroke:none;stroke-width:0.0387702" /><path
       id="path100"
       d="m 17.072622,86.161276 c -0.509443,0 -0.923123,-0.415267 -0.923123,-0.925327 0,-0.511141 0.41368,-0.926879 0.923123,-0.926879 0.511376,0 0.927378,0.415738 0.927378,0.926879 0,0.51006 -0.416002,0.925327 -0.927378,0.925327"
       style="fill:#7fc629;fill-opacity:1;fill-rule:nonzero;stroke:none;stroke-width:0.0387702" /><path
       id="path101-6"
       d="m 17.072622,88.470352 c -0.509443,0 -0.923123,-0.41523 -0.923123,-0.925644 0,-0.510061 0.41368,-0.924857 0.923123,-0.924857 0.511376,0 0.927378,0.414796 0.927378,0.924857 0,0.510414 -0.416002,0.925644 -0.927378,0.925644"
       style="fill:#7fc629;fill-opacity:1;fill-rule:nonzero;stroke:none;stroke-width:0.0387702" /><path
       id="path102"
       d="m 14.763459,83.850496 c -0.509429,0 -0.925445,-0.414024 -0.925813,-0.923346 C 13.838337,82.414956 14.25403,82 14.763459,82 c 0.511384,0 0.927392,0.415693 0.927392,0.926101 0,0.509907 -0.416008,0.924395 -0.927392,0.924395"
       style="fill:#de352e;fill-opacity:1;fill-rule:nonzero;stroke:none;stroke-width:0.0387702" /><path
       id="path103-5"
       d="m 14.763459,86.161276 c -0.509429,0 -0.925445,-0.414649 -0.925813,-0.924129 6.91e-4,-0.51339 0.416384,-0.928077 0.925813,-0.928077 0.511384,0 0.927392,0.415738 0.927392,0.926879 0,0.51006 -0.416008,0.925327 -0.927392,0.925327"
       style="fill:#de352e;fill-opacity:1;fill-rule:nonzero;stroke:none;stroke-width:0.0387702" /><path
       id="path104"
       d="m 12.455479,83.850496 c -0.510612,0 -0.925445,-0.414488 -0.925445,-0.924395 0,-0.510408 0.414833,-0.926101 0.925445,-0.926101 0.507893,0 0.922337,0.414956 0.923513,0.924121 -0.0015,0.512351 -0.41562,0.926375 -0.923513,0.926375"
       style="fill:#7dceee;fill-opacity:1;fill-rule:nonzero;stroke:none;stroke-width:0.0387702" /><path
       id="path105-0"
       d="m 12.455479,86.161276 c -0.510612,0 -0.925445,-0.415267 -0.925445,-0.925327 0,-0.511141 0.414833,-0.926879 0.925445,-0.926879 0.507893,0 0.922337,0.414687 0.923513,0.924123 -0.0015,0.513434 -0.41562,0.928083 -0.923513,0.928083"
       style="fill:#7dceee;fill-opacity:1;fill-rule:nonzero;stroke:none;stroke-width:0.0387702" /><path
       id="path106"
       d="m 12.455479,88.470352 c -0.510612,0 -0.925445,-0.41523 -0.925445,-0.925644 0,-0.510061 0.414833,-0.924857 0.925445,-0.924857 0.509833,0 0.923513,0.414796 0.923513,0.924857 0,0.510414 -0.41368,0.925644 -0.923513,0.925644"
       style="fill:#7dceee;fill-opacity:1;fill-rule:nonzero;stroke:none;stroke-width:0.0387702" /><path
       id="path107-8"
       d="m 10.144787,83.850496 c -0.50984,0 -0.9250557,-0.414488 -0.9250557,-0.924395 C 9.2197313,82.415693 9.634947,82 10.144787,82 c 0.510979,0 0.926606,0.415693 0.926606,0.926101 0,0.509907 -0.415627,0.924395 -0.926606,0.924395"
       style="fill:#35a586;fill-opacity:1;fill-rule:nonzero;stroke:none;stroke-width:0.0387702" /><path
       id="path108"
       d="m 10.144787,86.161276 c -0.50984,0 -0.9250557,-0.415267 -0.9250557,-0.925327 0,-0.511141 0.4152157,-0.926879 0.9250557,-0.926879 0.510979,0 0.926606,0.415738 0.926606,0.926879 0,0.51006 -0.415627,0.925327 -0.926606,0.925327"
       style="fill:#35a586;fill-opacity:1;fill-rule:nonzero;stroke:none;stroke-width:0.0387702" /><path
       id="path109-1"
       d="m 10.144787,88.470352 c -0.50984,0 -0.9250557,-0.41523 -0.9250557,-0.925644 0,-0.510061 0.4152157,-0.924857 0.9250557,-0.924857 0.510979,0 0.926606,0.414796 0.926606,0.924857 0,0.510414 -0.415627,0.925644 -0.926606,0.925644"
       style="fill:#35a586;fill-opacity:1;fill-rule:nonzero;stroke:none;stroke-width:0.0387702" /><path
       id="path110"
       d="m 7.8348521,83.850496 c -0.5106044,0 -0.9265989,-0.414488 -0.9265989,-0.924395 C 6.9082532,82.415693 7.3242477,82 7.8348521,82 c 0.5110018,0 0.9266138,0.415693 0.9266138,0.926101 0,0.509907 -0.415612,0.924395 -0.9266138,0.924395"
       style="fill:#ebc20c;fill-opacity:1;fill-rule:nonzero;stroke:none;stroke-width:0.0387702" /><path
       id="path111-2"
       d="m 7.8348521,86.161276 c -0.5106044,0 -0.9265989,-0.415267 -0.9265989,-0.925327 0,-0.511141 0.4159945,-0.926879 0.9265989,-0.926879 0.5110018,0 0.9266138,0.415738 0.9266138,0.926879 0,0.51006 -0.415612,0.925327 -0.9266138,0.925327"
       style="fill:#ebc20c;fill-opacity:1;fill-rule:nonzero;stroke:none;stroke-width:0.0387702" /><path
       id="path112"
       d="m 7.8348521,88.470352 c -0.5106044,0 -0.9265989,-0.41523 -0.9265989,-0.925644 0,-0.510061 0.4159945,-0.924857 0.9265989,-0.924857 0.5110018,0 0.9266138,0.414796 0.9266138,0.924857 0,0.510414 -0.415612,0.925644 -0.9266138,0.925644"
       style="fill:#ebc20c;fill-opacity:1;fill-rule:nonzero;stroke:none;stroke-width:0.0387702" /><path
       id="path113-2"
       d="m 7.8348521,90.779618 c -0.5106044,0 -0.9265989,-0.413908 -0.9265989,-0.92308 0,-0.511413 0.4159945,-0.927576 0.9265989,-0.927576 0.5110018,0 0.9266138,0.416163 0.9266138,0.927576 0,0.509172 -0.415612,0.92308 -0.9266138,0.92308"
       style="fill:#ebc20c;fill-opacity:1;fill-rule:nonzero;stroke:none;stroke-width:0.0387702" /><path
       id="path114"
       d="m 12.455479,90.779618 c -0.510612,0 -0.925445,-0.413908 -0.925445,-0.92308 0,-0.511413 0.414833,-0.927576 0.925445,-0.927576 0.509833,0 0.923513,0.416163 0.923513,0.927576 0,0.509172 -0.41368,0.92308 -0.923513,0.92308"
       style="fill:#7dceee;fill-opacity:1;fill-rule:nonzero;stroke:none;stroke-width:0.0387702" /><path
       id="path115-6"
       d="m 12.455868,95.088994 c 0.509444,0 0.923124,0.415732 0.923124,0.925637 0,0.510095 -0.41368,0.925056 -0.923513,0.925056 -0.510612,0 -0.925445,-0.414961 -0.925445,-0.925056 0,-0.509905 0.414068,-0.925637 0.923122,-0.925637"
       style="fill:#7dceee;fill-opacity:1;fill-rule:nonzero;stroke:none;stroke-width:0.0387702" /><path
       id="path116"
       d="m 12.455479,99.249687 c -0.510612,0 -0.925445,-0.414685 -0.925445,-0.925045 0,-0.511113 0.414833,-0.926379 0.925445,-0.926379 0.509833,0 0.923513,0.415266 0.923513,0.926379 0,0.51036 -0.41368,0.925045 -0.923513,0.925045"
       style="fill:#7dceee;fill-opacity:1;fill-rule:nonzero;stroke:none;stroke-width:0.0387702" /><path
       id="path117-9"
       d="m 7.8348521,93.089927 c -0.5106044,0 -0.9265989,-0.414955 -0.9265989,-0.926098 0,-0.510371 0.4159945,-0.925328 0.9265989,-0.925328 0.5110018,0 0.9266138,0.414957 0.9266138,0.925328 0,0.511143 -0.415612,0.926098 -0.9266138,0.926098"
       style="fill:#ebc20c;fill-opacity:1;fill-rule:nonzero;stroke:none;stroke-width:0.0387702" /><path
       id="path118"
       d="m 5.5249319,83.850496 c -0.5113833,0 -0.9273784,-0.414488 -0.9273784,-0.924395 C 4.5975535,82.415693 5.0135486,82 5.5249319,82 c 0.5102077,0 0.9250483,0.415693 0.9250483,0.926101 0,0.509907 -0.4148406,0.924395 -0.9250483,0.924395"
       style="fill:#7fc629;fill-opacity:1;fill-rule:nonzero;stroke:none;stroke-width:0.0387702" /><path
       id="path119-1"
       d="m 5.5249319,86.161276 c -0.5113833,0 -0.9273784,-0.415267 -0.9273784,-0.925327 0,-0.511141 0.4159951,-0.926879 0.9273784,-0.926879 0.5102077,0 0.9250483,0.415738 0.9250483,0.926879 0,0.51006 -0.4148406,0.925327 -0.9250483,0.925327"
       style="fill:#7fc629;fill-opacity:1;fill-rule:nonzero;stroke:none;stroke-width:0.0387702" /><path
       id="path120"
       d="m 5.5249319,88.470352 c -0.5113833,0 -0.9273784,-0.41523 -0.9273784,-0.925644 0,-0.510061 0.4159951,-0.924857 0.9273784,-0.924857 0.5102077,0 0.9250483,0.414796 0.9250483,0.924857 0,0.510414 -0.4148406,0.925644 -0.9250483,0.925644"
       style="fill:#7fc629;fill-opacity:1;fill-rule:nonzero;stroke:none;stroke-width:0.0387702" /><path
       id="path121-0"
       d="m 1.6766064,83.850496 c -0.5106121,0 -0.92660638,-0.414488 -0.92660638,-0.924395 C 0.75000002,82.415693 1.1659943,82 1.6766064,82 c 0.5094435,0 0.9238873,0.415693 0.9238873,0.926101 0,0.509907 -0.4144438,0.924395 -0.9238873,0.924395"
       style="fill:#de352e;fill-opacity:1;fill-rule:nonzero;stroke:none;stroke-width:0.0387702" /><path
       id="path122"
       d="m 3.215784,86.161276 c -0.5113689,0 -0.9270032,-0.415267 -0.9270032,-0.925327 0,-0.511141 0.4156343,-0.926879 0.9270032,-0.926879 0.5090533,0 0.9227255,0.415738 0.9227255,0.926879 0,0.51006 -0.4136722,0.925327 -0.9227255,0.925327"
       style="fill:#de352e;fill-opacity:1;fill-rule:nonzero;stroke:none;stroke-width:0.0387702" /><path
       id="path123-4"
       d="m 3.215784,90.779618 c -0.5113689,0 -0.9270032,-0.414489 -0.9270032,-0.924277 0,-0.511111 0.4156343,-0.926379 0.9270032,-0.926379 0.5090533,0 0.9227255,0.415268 0.9227255,0.926379 0,0.509788 -0.4136722,0.924277 -0.9227255,0.924277"
       style="fill:#de352e;fill-opacity:1;fill-rule:nonzero;stroke:none;stroke-width:0.0387702" /><path
       id="path124"
       d="m 1.6766064,88.470352 c -0.5106121,0 -0.92660638,-0.41523 -0.92660638,-0.925644 0,-0.510061 0.41599428,-0.924857 0.92660638,-0.924857 0.5094435,0 0.9238873,0.414796 0.9238873,0.924857 0,0.510414 -0.4144438,0.925644 -0.9238873,0.925644"
       style="fill:#de352e;fill-opacity:1;fill-rule:nonzero;stroke:none;stroke-width:0.0387702" /></g></svg>
